<svg xmlns="http://www.w3.org/2000/svg" viewBox="0 0 32 32">
  <rect width="32" height="32" fill="#1a202d"/>
  <rect x="4" y="4" width="4" height="4" fill="#eeeeee"/>
  <rect x="4" y="8" width="4" height="4" fill="#eeeeee"/>
  <rect x="4" y="12" width="4" height="4" fill="#eeeeee"/>
  <rect x="4" y="16" width="4" height="4" fill="#eeeeee"/>
  <rect x="4" y="20" width="4" height="4" fill="#eeeeee"/>
  <rect x="12" y="4" width="4" height="4" fill="#eeeeee"/>
  <rect x="16" y="4" width="4" height="4" fill="#eeeeee"/>
  <rect x="16" y="8" width="4" height="4" fill="#eeeeee"/>
  <rect x="12" y="12" width="4" height="4" fill="#eeeeee"/>
  <rect x="16" y="12" width="4" height="4" fill="#eeeeee"/>
  <rect x="12" y="16" width="4" height="4" fill="#eeeeee"/>
  <rect x="12" y="20" width="4" height="4" fill="#eeeeee"/>
  <rect x="16" y="20" width="4" height="4" fill="#eeeeee"/>
  <rect x="24" y="4" width="4" height="4" fill="#eeeeee"/>
  <rect x="28" y="4" width="4" height="4" fill="#eeeeee"/>
  <rect x="28" y="12" width="4" height="4" fill="#eeeeee"/>
  <rect x="24" y="12" width="4" height="4" fill="#eeeeee"/>
  <rect x="28" y="20" width="4" height="4" fill="#eeeeee"/>
  <rect x="24" y="20" width="4" height="4" fill="#eeeeee"/>
  <rect x="28" y="8" width="4" height="4" fill="#eeeeee"/>
  <rect x="28" y="16" width="4" height="4" fill="#eeeeee"/>
</svg>
